<?xml version="1.0" standalone="no"?><!DOCTYPE svg PUBLIC "-//W3C//DTD SVG 1.1//EN" "http://www.w3.org/Graphics/SVG/1.1/DTD/svg11.dtd"><svg class="icon" height="512" viewBox="0 0 1024 1024" version="1.1" xmlns="http://www.w3.org/2000/svg"><path d="M514.730667 14.7456c-275.387733 0-498.346667 223.232-498.346667 498.346667s223.232 498.346667 498.346667 498.346666 498.346667-223.232 498.346666-498.346666c-0.4096-275.387733-223.505067-498.346667-498.346666-498.346667z m0 929.792C276.343467 944.5376 82.7392 750.933333 82.7392 512.546133S276.343467 80.418133 514.730667 80.418133s431.991467 193.877333 431.991466 431.991467S752.571733 944.5376 514.730667 944.5376z" fill="" /><path d="M746.973867 479.6416H547.771733v-199.338667c0-18.158933-14.7456-33.450667-32.904533-33.450666s-33.041067 14.7456-33.041067 33.450666v199.338667H281.941333c-18.158933 0-33.450667 14.7456-33.450666 32.904533s14.7456 33.041067 33.450666 33.041067h199.338667v199.338667c0 18.158933 14.7456 33.450667 32.904533 33.450666s32.904533-14.7456 32.904534-33.450666v-199.338667h199.338666c18.158933 0 33.450667-14.7456 33.450667-32.904533s-14.609067-33.041067-32.904533-33.041067z" fill="" /></svg>